Michelangelo Antonioni’s Identification of a Woman is a body- and soul-baring voyage into one man’s artistic and erotic consciousness. After his wife leaves him, a film director finds himself drawn into affairs with two enigmatic women: at the same time, he searches for the right subject and actress for his next film. This spellbinding antiromance was a late-career coup for the legendary Italian filmmaker, and is renowned for its sexual explicitness and an extended scene on a fog-enshrouded highway that stands with the director’s greatest set pieces (-Criterion)

General
      Complete name : Michelangelo Antonioni-Identification of a Woman (1982).mkv
      Format : Matroska
      File size : 6.61 GiB
      Duration : 2h 10mn
      Overall bit rate : 7 250 Kbps
      Movie name : Michelangelo Antonioni-Identification of a Woman (1982)
      Encoded date : UTC 2011-11-11 15:31:47
      Writing application : mkvmerge v5.0.1 ('Es ist Sommer') built on Oct  9 2011 11:55:43
      Writing library : libebml v1.2.2 + libmatroska v1.3.0
   Video #1
      ID : 1
      Format : AVC
      Format/Info : Advanced Video Codec
      Format profile : High@L4.1
      Format settings, CABAC : Yes
      Format settings, ReFrames : 4 frames
      Muxing mode : Container profile=Unknown@4.1
      Codec ID : V_MPEG4/ISO/AVC
      Duration : 2h 10mn
      Bit rate : 6 658 Kbps
      Nominal bit rate : 6 800 Kbps
      Width : 1 280 pixels
      Height : 692 pixels
      Display aspect ratio : 1.850
      Frame rate : 23.976 fps
      Resolution : 24 bits
      Colorimetry : 4:2:0
      Scan type : Progressive
      Bits/(Pixel*Frame) : 0.314
      Stream size : 6.06 GiB (92%)      
   Audio #2
      ID : 2
      Format : AC-3
      Format/Info : Audio Coding 3
      Codec ID : A_AC3
      Duration : 2h 10mn
      Bit rate mode : Constant
      Bit rate : 448 Kbps
      Channel(s) : 1 channel
      Channel positions : C
      Sampling rate : 48.0 KHz
      Stream size : 418 MiB (6%)
      Language : Italian
   Text #3
      ID : 3
      Format : VobSub
      Codec ID : S_VOBSUB
      Codec ID/Info : The same subtitle format used on DVDs
 
http://www.imdb.com/title/tt0084116/

Language: Italian
Subtitles: English (in mkv), Portuguese (srt)

Posted originally at KG by EceAyhan, whom we thank